<svg width="66" height="58" viewBox="0 0 66 58" fill="none" xmlns="http://www.w3.org/2000/svg">
<g clip-path="url(#clip0_46_106)">
<path d="M54.5339 57.7967C55.7458 57.7967 56.678 56.8645 56.678 55.6527V32.8137H62.2712C64.322 32.8137 66 31.1357 66 29.0849C66 27.873 65.4407 26.8476 64.6017 26.195L57.3305 19.8561V9.50861C57.3305 8.29674 56.3051 7.27132 55.0932 7.27132H50.5254C49.3136 7.27132 48.2881 8.29674 48.2881 9.50861V12.1188L35.4237 0.932336C34.0254 -0.279529 31.9746 -0.279529 30.5763 0.932336L1.30508 26.3815C0.0932202 27.4069 -0.279661 28.9917 0.279661 30.4832C0.838983 31.9747 2.23729 32.9069 3.72881 32.9069H9.32203V55.7459C9.32203 56.9578 10.2542 57.89 11.4661 57.89H24.0508V41.2035C24.0508 38.873 25.9153 36.9154 28.339 36.9154H37.661C39.9915 36.9154 41.9492 38.7798 41.9492 41.2035V57.7967H54.5339Z" fill="#002E5A"/>
</g>
<defs>
<clipPath id="clip0_46_106">
<rect width="66" height="57.7966" fill="white"/>
</clipPath>
</defs>
</svg>
