<svg width="66" height="66" viewBox="0 0 66 66" fill="none" xmlns="http://www.w3.org/2000/svg">
<g clip-path="url(#clip0_46_153)">
<path d="M20.8371 28.5654L22.8171 26.325C24.5142 24.5513 25.3628 22.1241 25.1742 19.6969C25.08 17.2698 23.9485 15.0293 22.1571 13.349L18.7628 10.2684C17.0657 8.77474 14.8971 7.93457 12.54 7.93457C9.89995 7.93457 7.44852 9.0548 5.65709 10.9218L3.67709 13.1623C3.39424 13.4424 3.20566 13.7224 2.92281 14.0958L2.82852 14.2825C0.942808 15.8695 -0.66005 19.7903 0.282808 24.5513C4.61995 46.8624 23.5714 63.8525 46.4828 65.9063C49.4999 66.1863 52.3285 65.5329 54.4028 64.2259C55.2514 63.7592 56.0057 63.1057 56.6657 62.4523L58.6457 60.2118C62.0399 56.4777 61.7571 50.6899 57.9857 47.2358L54.5914 44.1552C52.8942 42.6616 50.7257 41.8214 48.3685 41.8214C45.7285 41.8214 43.2771 42.9416 41.4857 44.8087L39.5057 47.0491C38.6571 47.9827 37.9971 49.1029 37.62 50.3165L37.4314 50.8766L36.8657 50.6899C27.9085 47.1425 20.5542 40.5145 16.2171 31.9261L16.0285 31.366L16.6885 31.1793C18.1971 30.7125 19.7057 29.779 20.8371 28.5654Z" fill="#002E5A"/>
<path d="M32.1514 2.1471C32.1514 3.36068 33.0942 4.2942 34.3199 4.2942C49.4057 4.2942 61.7571 16.5233 61.7571 31.4597C61.7571 32.6733 62.6999 33.6068 63.9257 33.6068C65.1514 33.6068 66.0942 32.6733 66.0942 31.4597C65.9999 14.0962 51.7628 0 34.3199 0C33.0942 0 32.1514 0.933522 32.1514 2.1471Z" fill="#002E5A"/>
<path d="M31.7742 12.6022C31.7742 13.8158 32.717 14.7493 33.9427 14.7493C43.4656 14.7493 51.197 22.4042 51.197 31.8327C51.197 33.0463 52.1399 33.9798 53.3656 33.9798C54.5913 33.9798 55.5342 33.0463 55.5342 31.8327C55.5342 20.0704 45.917 10.5484 34.037 10.5484C32.717 10.4551 31.7742 11.3886 31.7742 12.6022Z" fill="#002E5A"/>
</g>
<defs>
<clipPath id="clip0_46_153">
<rect width="66" height="66" fill="white"/>
</clipPath>
</defs>
</svg>
