<svg width="66" height="66" viewBox="0 0 66 66" fill="none" xmlns="http://www.w3.org/2000/svg">
<g clip-path="url(#clip0_46_135)">
<path d="M55.6545 12.3297C51.7271 14.5055 48.8534 15.7747 46.6502 15.4121C49.0449 14.4148 53.2597 12.3297 55.5587 7.43407C55.7503 7.07143 54.505 6.52747 54.1219 6.34615C53.7387 6.16483 53.2597 6.34615 53.0682 6.70879C51.3439 10.5165 49.0449 12.511 47.0333 13.5082C49.3323 9.60989 50.7692 4.07967 50.7692 0H33.3352H15.2307C15.2307 5.25824 17.5297 12.8736 21.074 16.5H44.8301C45.788 16.772 46.9375 16.9533 48.3744 16.9533C50.6734 16.9533 53.5471 16.4093 56.804 14.5962C57.1872 14.4148 56.8998 12.8736 56.7082 12.511C56.5166 12.239 56.0377 12.0577 55.6545 12.3297Z" fill="#002E5A"/>
<path d="M45.2133 18.2227H45.0218H20.9782H20.7866C8.62119 22.7556 0 34.088 0 47.2336C0 64.4589 14.7518 66.0001 33.0479 66.0001C51.2482 66.0001 66.0958 64.5496 66.0958 47.2336C66 34.088 57.3788 22.7556 45.2133 18.2227ZM42.0522 46.5084C41.6691 50.3161 38.3164 52.5825 35.2511 52.8545V56.8435H31.1321V53.1265C31.1321 53.1265 26.5341 52.8545 23.852 51.3133L25.3846 46.7803C25.3846 46.7803 27.2046 47.6869 29.312 48.1402C31.4194 48.5935 35.1553 48.4122 35.6343 46.5084C36.1132 44.6952 34.7721 43.9699 32.1858 43.2446C29.5994 42.5194 25.0014 40.5249 24.5225 37.1705C24.0435 33.5441 25.8636 30.643 31.0363 29.6457V25.7474H35.1553V29.1018C35.1553 29.1018 39.3701 29.3738 40.9028 30.371L39.9448 34.5413C39.9448 34.5413 36.0174 33.2721 33.3353 33.4534C30.6531 33.6347 30.4615 36.2639 32.3774 37.3518C34.6763 38.7117 37.9332 39.7089 39.0827 40.2529C40.1364 40.8875 42.4354 42.7007 42.0522 46.5084Z" fill="#002E5A"/>
</g>
<defs>
<clipPath id="clip0_46_135">
<rect width="66" height="66" fill="white"/>
</clipPath>
</defs>
</svg>
