<svg width="64" height="66" viewBox="0 0 64 66" fill="none" xmlns="http://www.w3.org/2000/svg">
<g clip-path="url(#clip0_46_110)">
<path d="M6.0078 7.63867C2.6606 7.63867 0 10.2993 0 13.6465V60.0782C0 63.4254 2.6606 66.086 6.0078 66.086H57.5891C60.9363 66.086 63.5969 63.4254 63.5969 60.0782V13.6465C63.5969 10.2993 60.9363 7.63867 57.5891 7.63867H55.5293V11.415C55.5293 13.9898 53.4694 16.0496 50.8947 16.0496C48.3199 16.0496 46.2601 13.9898 46.2601 11.415V7.63867H17.3368V11.415C17.3368 13.9898 15.277 16.0496 12.7022 16.0496C10.1274 16.0496 8.06762 13.9898 8.06762 11.415V7.63867H6.0078ZM9.78413 24.3747H53.8127C55.1001 24.3747 56.2159 25.3188 56.2159 26.5203V56.5593C56.2159 57.7609 55.1001 58.705 53.8127 58.705H9.78413C8.49675 58.705 7.38101 57.7609 7.38101 56.5593V26.6062C7.38101 25.4046 8.49675 24.3747 9.78413 24.3747Z" fill="#002E5A"/>
<path d="M10.4707 2.23147V7.63849V11.4148C10.4707 12.6164 11.4148 13.6463 12.7022 13.6463C13.9037 13.6463 14.9336 12.7022 14.9336 11.4148V7.63849V2.23147C14.9336 1.02991 13.9037 0 12.7022 0C11.5006 0 10.4707 0.944083 10.4707 2.23147Z" fill="#002E5A"/>
<path d="M48.749 2.23147V7.63849V11.4148C48.749 12.6164 49.7789 13.6463 50.9805 13.6463C52.1821 13.6463 53.212 12.7022 53.212 11.4148V7.63849V2.23147C53.212 1.02991 52.2679 0 50.9805 0C49.6931 0 48.749 0.944083 48.749 2.23147Z" fill="#002E5A"/>
<path d="M23.2587 28.1504H11.5864V40.0802H23.2587V28.1504Z" fill="#002E5A"/>
<path d="M37.935 28.1504H26.2627V40.0802H37.935V28.1504Z" fill="#002E5A"/>
<path d="M23.2587 42.8271H11.5864V54.7569H23.2587V42.8271Z" fill="#002E5A"/>
<path d="M37.935 42.8271H26.2627V54.7569H37.935V42.8271Z" fill="#002E5A"/>
<path d="M53.1262 28.1504H41.4539V40.0802H53.1262V28.1504Z" fill="#002E5A"/>
<path d="M53.1262 42.8271H41.4539V54.7569H53.1262V42.8271Z" fill="#002E5A"/>
</g>
<defs>
<clipPath id="clip0_46_110">
<rect width="63.5969" height="66" fill="white"/>
</clipPath>
</defs>
</svg>
