<svg width="54" height="66" viewBox="0 0 54 66" fill="none" xmlns="http://www.w3.org/2000/svg">
<path d="M3.92079 0C1.74257 0 0 1.74257 0 3.92079V62.0792C0 64.2574 1.74257 66 3.92079 66H38.9901V58.2673C38.9901 54.8911 41.7129 52.0594 45.198 52.0594H53.802V3.92079C53.802 1.74257 52.0594 0 49.8812 0H3.92079ZM43.5644 36.0495H10.2376V33.3267H43.5644V36.0495ZM43.5644 26.5743H10.2376V23.8515H43.5644V26.5743ZM43.5644 17.099H10.2376V14.3762H43.5644V17.099Z" fill="#002E5A"/>
<path d="M41.2773 58.2675V64.4754L52.0595 54.3467H45.1981C43.0199 54.3467 41.2773 56.0893 41.2773 58.2675Z" fill="#002E5A"/>
</svg>
