<svg width="51" height="55" viewBox="0 0 51 55" fill="none" xmlns="http://www.w3.org/2000/svg">
<g clip-path="url(#clip0_66_394)">
<path d="M25.5 54.0699C39.1145 54.0699 50.1512 43.0332 50.1512 29.4187C50.1512 15.8043 39.1145 4.76758 25.5 4.76758C11.8856 4.76758 0.848877 15.8043 0.848877 29.4187C0.848877 43.0332 11.8856 54.0699 25.5 54.0699Z" stroke="#002E5A" stroke-dasharray="5 5"/>
<path d="M9.68596 15.5814C13.9886 15.5814 17.4767 12.0934 17.4767 7.7907C17.4767 3.48801 13.9886 0 9.68596 0C5.38328 0 1.89526 3.48801 1.89526 7.7907C1.89526 12.0934 5.38328 15.5814 9.68596 15.5814Z" fill="#448A4C"/>
<path d="M8.04175 10.9304V10.1001H9.15803V6.83502H8.21617V6.20014C8.73942 6.10246 9.08826 5.9699 9.42314 5.76758H10.1836V10.1001H11.1534V10.9304H8.04175Z" fill="white"/>
<mask id="mask0_66_394" style="mask-type:luminance" maskUnits="userSpaceOnUse" x="17" y="16" width="17" height="17">
<path d="M33.0581 16.7441H17.7092V32.093H33.0581V16.7441Z" fill="white"/>
</mask>
<g mask="url(#mask0_66_394)">
<path d="M22.555 23.3876L23.0155 22.8667C23.4102 22.4542 23.6075 21.8897 23.5636 21.3253C23.5417 20.7608 23.2786 20.2398 22.862 19.849L22.0726 19.1326C21.6779 18.7852 21.1736 18.5898 20.6255 18.5898C20.0115 18.5898 19.4414 18.8504 19.0248 19.2845L18.5643 19.8056C18.4985 19.8707 18.4547 19.9358 18.3889 20.0227L18.367 20.0661C17.9284 20.4352 17.5557 21.347 17.7749 22.4542C18.7836 27.6427 23.1909 31.5941 28.5192 32.0716C29.2208 32.1367 29.8787 31.9848 30.361 31.6809C30.5582 31.5723 30.7338 31.4204 30.8873 31.2683L31.3478 30.7474C32.1371 29.879 32.0713 28.533 31.1943 27.7297L30.4048 27.0132C30.0101 26.666 29.5059 26.4704 28.9578 26.4704C28.3438 26.4704 27.7736 26.7311 27.3571 27.1653L26.8966 27.6862C26.6992 27.9034 26.5457 28.1639 26.458 28.446L26.4141 28.5764L26.2827 28.533C24.1996 27.7078 22.4892 26.1664 21.4806 24.1692L21.4367 24.039L21.5902 23.9955C21.9411 23.8871 22.2919 23.6699 22.555 23.3876Z" fill="#002E5A"/>
<path d="M25.186 17.2435C25.186 17.5257 25.4053 17.7428 25.6905 17.7428C29.1988 17.7428 32.0712 20.5868 32.0712 24.0604C32.0712 24.3425 32.2905 24.5597 32.5756 24.5597C32.8605 24.5597 33.0798 24.3425 33.0798 24.0604C33.0579 20.0223 29.747 16.7441 25.6905 16.7441C25.4053 16.7441 25.186 16.9612 25.186 17.2435Z" fill="#002E5A"/>
<path d="M25.0984 19.6744C25.0984 19.9567 25.3177 20.1738 25.6028 20.1738C27.8175 20.1738 29.6154 21.954 29.6154 24.1467C29.6154 24.4288 29.8347 24.646 30.1198 24.646C30.4047 24.646 30.624 24.4288 30.624 24.1467C30.624 21.4112 28.3875 19.1968 25.6247 19.1968C25.3177 19.1751 25.0984 19.3922 25.0984 19.6744Z" fill="#002E5A"/>
</g>
<path d="M17.8907 39.3937H20.2683V39.691H17.8907V39.3937ZM17.8949 38.8705H20.5572V40.2142H17.8949V39.8751H20.059V39.2054H17.8949V38.8705ZM18.82 39.0547H19.3014V40.2226C19.3014 40.3816 19.3474 40.4026 19.6028 40.4026C19.72 40.4026 20.2474 40.4026 20.3981 40.4026C20.6074 40.4026 20.6493 40.3398 20.6744 39.984C20.779 40.0551 20.9674 40.1179 21.0972 40.143C21.0386 40.6496 20.8963 40.7877 20.44 40.7877C20.306 40.7877 19.6823 40.7877 19.5567 40.7877C18.979 40.7877 18.82 40.6663 18.82 40.2268V39.0547ZM17.6437 38.8705H18.1251V40.3984H17.6437V38.8705ZM17.4428 37.0621H20.7456V37.3928H17.4428V37.0621ZM18.8451 37.1416H19.3349V38.7575H18.8451V37.1416ZM17.2544 37.5603H20.959V38.5063H20.4567V37.8868H17.7316V38.5063H17.2544V37.5603ZM17.7023 38.4686C17.966 38.4393 18.3302 38.3849 18.7028 38.3305L18.7195 38.611C18.4056 38.6863 18.0958 38.7575 17.8279 38.8203L17.7023 38.4686ZM17.8404 38.1212L17.9702 37.8784C18.2046 37.9161 18.527 37.9914 18.6986 38.0584L18.5646 38.3305C18.3972 38.2635 18.079 38.1714 17.8404 38.1212ZM20.1888 37.8407L20.3856 38.1003C20.1553 38.1923 19.8456 38.2635 19.6321 38.3054L19.473 38.0668C19.6865 38.0207 20.0046 37.9077 20.1888 37.8407ZM19.4102 38.5733L19.5065 38.2928C19.8163 38.3263 20.2474 38.4184 20.4777 38.4937L20.3856 38.8077C20.1595 38.7282 19.7283 38.6193 19.4102 38.5733ZM24.7851 36.9282L25.0907 37.33C24.5507 37.5017 23.8139 37.6021 23.186 37.6523C23.1651 37.5393 23.1107 37.3551 23.0604 37.2463C23.6716 37.1835 24.3581 37.0705 24.7851 36.9282ZM22.9725 38.1714H25.2539V38.6444H22.9725V38.1714ZM23.1609 39.2263H25.0446V40.8254H24.5632V39.6826H23.6172V40.8421H23.1609V39.2263ZM23.3828 40.2393H24.8102V40.6914H23.3828V40.2393ZM23.86 37.3468H24.3163V39.4607H23.86V37.3468ZM21.5074 38.1882H22.8009V38.5691H21.5074V38.1882ZM21.5074 38.7575H22.8009V39.1342H21.5074V38.7575ZM21.3274 37.6063H22.9474V38.004H21.3274V37.6063ZM21.7209 39.3351H22.826V40.6077H21.7209V40.2058H22.3949V39.737H21.7209V39.3351ZM21.499 39.3351H21.926V40.7877H21.499V39.3351ZM21.7795 37.0789L22.1646 36.8905C22.2818 37.0663 22.4116 37.2965 22.4744 37.4514L22.0725 37.6733C22.0181 37.5142 21.8883 37.2589 21.7795 37.0789ZM27.5228 38.9416H28.3097V39.3268H27.5228V38.9416ZM27.5479 38.2635H28.5232V40.0007H27.5479V39.603H28.1214V38.6612H27.5479V38.2635ZM27.3051 38.2635H27.6986V40.1514H27.3051V38.2635ZM27.619 36.9282L28.113 37.0412C27.9456 37.6314 27.6525 38.2007 27.3344 38.5607C27.2423 38.4728 27.033 38.3221 26.9158 38.2468C27.2297 37.9412 27.4809 37.4389 27.619 36.9282ZM27.6567 37.5058H29.0423V37.9621H27.4265L27.6567 37.5058ZM28.9 37.5058H29.3772C29.3772 37.5058 29.3772 37.6733 29.373 37.7403C29.327 39.6784 29.2893 40.3649 29.1302 40.5826C29.0256 40.7375 28.9209 40.7877 28.7702 40.8128C28.6237 40.8337 28.406 40.8337 28.1883 40.8296C28.18 40.6872 28.1172 40.4696 28.0293 40.3314C28.2511 40.3482 28.4479 40.3482 28.54 40.3482C28.6153 40.3482 28.6572 40.3314 28.699 40.2728C28.8204 40.1305 28.8623 39.4314 28.9 37.6105V37.5058ZM25.706 38.1882H26.9367V38.5691H25.706V38.1882ZM25.706 38.7575H26.9451V39.1342H25.706V38.7575ZM25.5428 37.6063H27.1125V38.004H25.5428V37.6063ZM25.9153 39.3351H26.9409V40.6077H25.9153V40.2058H26.5432V39.737H25.9153V39.3351ZM25.7102 39.3351H26.0995V40.7877H25.7102V39.3351ZM25.9488 37.0789L26.2963 36.8779C26.4218 37.0496 26.5558 37.2798 26.6186 37.4347L26.2544 37.6733C26.1916 37.5142 26.0618 37.2589 25.9488 37.0789ZM31.0474 38.9291H32.4623V40.2477H31.0474V39.8375H31.9935V39.3393H31.0474V38.9291ZM30.8339 38.9291H31.2986V40.4863H30.8339V38.9291ZM30.1474 37.6775H31.1981V38.0207H30.1474V37.6775ZM32.0897 37.6775H33.1488V38.0207H32.0897V37.6775ZM32.9395 37.0705H33.446V40.2393C33.446 40.524 33.3874 40.6663 33.2158 40.75C33.04 40.8337 32.7763 40.8421 32.3911 40.8421C32.3744 40.6998 32.2907 40.4612 32.2195 40.3314C32.4623 40.344 32.7511 40.3398 32.8307 40.3398C32.9102 40.3398 32.9395 40.3105 32.9395 40.2351V37.0705ZM30.1893 37.0705H31.5121V38.6403H30.1893V38.2551H31.0432V37.4556H30.1893V37.0705ZM33.2116 37.0705V37.4514H32.2739V38.2635H33.2116V38.6444H31.7967V37.0705H33.2116ZM29.9004 37.0705H30.3986V40.8421H29.9004V37.0705Z" fill="#002E5A"/>
</g>
<defs>
<clipPath id="clip0_66_394">
<rect width="50" height="54.4186" fill="white" transform="translate(0.5)"/>
</clipPath>
</defs>
</svg>
