<svg width="51" height="55" viewBox="0 0 51 55" fill="none" xmlns="http://www.w3.org/2000/svg">
<g clip-path="url(#clip0_66_417)">
<path d="M25.5 54.0699C39.1145 54.0699 50.1512 43.0332 50.1512 29.4187C50.1512 15.8043 39.1145 4.76758 25.5 4.76758C11.8856 4.76758 0.848877 15.8043 0.848877 29.4187C0.848877 43.0332 11.8856 54.0699 25.5 54.0699Z" stroke="#002E5A" stroke-dasharray="5 5"/>
<path d="M9.68596 15.5814C13.9886 15.5814 17.4767 12.0934 17.4767 7.7907C17.4767 3.48801 13.9886 0 9.68596 0C5.38328 0 1.89526 3.48801 1.89526 7.7907C1.89526 12.0934 5.38328 15.5814 9.68596 15.5814Z" fill="#448A4C"/>
<path d="M7.76978 10.9302V10.3442C9.17909 9.08141 10.0023 8.11164 10.0023 7.31629C10.0023 6.80001 9.73025 6.47908 9.2349 6.47908C8.85118 6.47908 8.55118 6.72327 8.28606 7.01629L7.72095 6.45815C8.19537 5.94885 8.66281 5.67676 9.36746 5.67676C10.3372 5.67676 10.993 6.29769 10.993 7.26048C10.993 8.20234 10.2116 9.20699 9.26978 10.1279C9.52792 10.1 9.86978 10.0651 10.114 10.0651H11.2302V10.9302H7.76978Z" fill="white"/>
<mask id="mask0_66_417" style="mask-type:luminance" maskUnits="userSpaceOnUse" x="17" y="16" width="17" height="17">
<path d="M33.0581 16.7441H17.7092V32.093H33.0581V16.7441Z" fill="white"/>
</mask>
<g mask="url(#mask0_66_417)">
<path d="M30.6522 19.6115C29.7387 20.1175 29.0703 20.4127 28.558 20.3284C29.115 20.0964 30.0952 19.6115 30.6299 18.473C30.6743 18.3887 30.3848 18.2622 30.2957 18.22C30.2066 18.1778 30.0952 18.22 30.0506 18.3043C29.6496 19.1898 29.115 19.6537 28.6471 19.8856C29.1817 18.979 29.5159 17.6929 29.5159 16.7441H25.4615H21.2512C21.2512 17.967 21.7859 19.738 22.6101 20.5813H28.1348C28.3575 20.6446 28.625 20.6868 28.9589 20.6868C29.4936 20.6868 30.162 20.5603 30.9194 20.1386C31.0085 20.0964 30.9417 19.738 30.8971 19.6537C30.8527 19.5904 30.7413 19.5483 30.6522 19.6115Z" fill="#002E5A"/>
<path d="M28.2239 20.9824H28.1795H22.5879H22.5433C19.7142 22.0366 17.7092 24.672 17.7092 27.7292C17.7092 31.735 21.1399 32.0934 25.3948 32.0934C29.6274 32.0934 33.0804 31.7562 33.0804 27.7292C33.0581 24.672 31.0532 22.0366 28.2239 20.9824ZM27.4888 27.5604C27.3997 28.446 26.6199 28.9732 25.9071 29.0364V29.9641H24.9492V29.0995C24.9492 29.0995 23.8799 29.0364 23.2562 28.6778L23.6126 27.6237C23.6126 27.6237 24.036 27.8346 24.526 27.9399C25.016 28.0455 25.8848 28.0032 25.9962 27.5604C26.1076 27.1388 25.7957 26.9702 25.1943 26.8016C24.5927 26.6327 23.5235 26.169 23.4121 25.3888C23.3007 24.5455 23.724 23.8709 24.9269 23.639V22.7324H25.8848V23.5125C25.8848 23.5125 26.865 23.5757 27.2216 23.8076L26.9988 24.7774C26.9988 24.7774 26.0853 24.4823 25.4616 24.5244C24.8378 24.5667 24.7934 25.1781 25.2388 25.4311C25.7734 25.7474 26.5309 25.9792 26.7983 26.1057C27.0432 26.2532 27.5778 26.6751 27.4888 27.5604Z" fill="#002E5A"/>
</g>
<path d="M23.5628 38.5316H24.8437V38.9292H23.5628V38.5316ZM23.3284 37.0874H24.8688V37.5269H23.7846V40.8381H23.3284V37.0874ZM24.6009 37.0874H25.0656V37.8785C25.0656 38.092 25.0237 38.2176 24.8604 38.2846C24.6972 38.3515 24.4711 38.3557 24.1614 38.3557C24.1446 38.226 24.0818 38.046 24.0232 37.9246C24.2284 37.9329 24.4586 37.9329 24.5172 37.9329C24.5842 37.9288 24.6009 37.9162 24.6009 37.8702V37.0874ZM24.0902 38.7911C24.2995 39.486 24.7181 40.1181 25.3125 40.4153C25.2037 40.5074 25.0572 40.6874 24.9818 40.8129C24.3581 40.4404 23.9479 39.7204 23.7135 38.8874L24.0902 38.7911ZM24.6972 38.5316H24.7851L24.8646 38.5106L25.166 38.6195C25.0153 39.5739 24.6218 40.386 23.9814 40.8506C23.9102 40.7376 23.7595 40.5911 23.6507 40.5074C24.2325 40.1097 24.5884 39.3897 24.6972 38.6278V38.5316ZM21.4739 37.2841H23.1191V37.6985H21.4739V37.2841ZM21.3525 39.6534H23.2195V40.0762H21.3525V39.6534ZM21.3525 37.9874H23.2153V38.4102H21.3525V37.9874ZM21.453 38.8957H23.1358V39.3185H21.453V38.8957ZM22.0809 36.9241H22.5456V38.1464H22.0809V36.9241ZM22.0809 39.0715H22.5456V40.8297H22.0809V39.0715ZM22.6377 38.3683L23.0563 38.4729C22.939 38.7116 22.8177 38.9585 22.713 39.1218L22.3572 39.0213C22.4577 38.8455 22.5791 38.5692 22.6377 38.3683ZM21.5995 38.4813L21.9637 38.3725C22.0432 38.519 22.1228 38.7116 22.1479 38.8371L21.7628 38.9585C21.7418 38.8329 21.6707 38.632 21.5995 38.4813ZM26.7107 37.0957H29.4065V37.4599H26.7107V37.0957ZM27.2214 37.9329V38.2176H28.8204V37.9329H27.2214ZM26.7902 37.6399H29.2767V38.5064H26.7902V37.6399ZM27.4809 37.2297H27.8744V38.339H27.4809V37.2297ZM28.1507 37.2297H28.5525V38.339H28.1507V37.2297ZM27.3177 39.3562V39.5111H28.7451V39.3562H27.3177ZM27.3177 39.779V39.9381H28.7451V39.779H27.3177ZM27.3177 38.9334V39.0883H28.7451V38.9334H27.3177ZM26.853 38.6529H29.2349V40.2185H26.853V38.6529ZM28.1632 40.4529L28.4856 40.1767C28.8414 40.2939 29.26 40.4571 29.5028 40.5743L29.0716 40.8548C28.8665 40.7334 28.5065 40.5702 28.1632 40.4529ZM27.5395 40.1683L27.887 40.4195C27.6107 40.612 27.1879 40.7669 26.8153 40.8464C26.7609 40.746 26.6437 40.5911 26.5558 40.5074C26.9158 40.4362 27.3093 40.3064 27.5395 40.1683ZM26.2586 36.9199L26.7232 37.0539C26.4846 37.7864 26.0995 38.5818 25.6725 39.0841C25.6307 38.9585 25.5093 38.6739 25.4297 38.5399C25.7688 38.1464 26.0786 37.5311 26.2586 36.9199ZM25.9279 38.0669L26.3925 37.6064L26.4051 37.6148V40.8381H25.9279V38.0669Z" fill="#002E5A"/>
</g>
<defs>
<clipPath id="clip0_66_417">
<rect width="50" height="54.4186" fill="white" transform="translate(0.5)"/>
</clipPath>
</defs>
</svg>
