<svg width="51" height="55" viewBox="0 0 51 55" fill="none" xmlns="http://www.w3.org/2000/svg">
<g clip-path="url(#clip0_66_406)">
<path d="M25.5 54.0699C39.1145 54.0699 50.1512 43.0332 50.1512 29.4187C50.1512 15.8043 39.1145 4.76758 25.5 4.76758C11.8856 4.76758 0.848877 15.8043 0.848877 29.4187C0.848877 43.0332 11.8856 54.0699 25.5 54.0699Z" stroke="#002E5A" stroke-dasharray="5 5"/>
<path d="M9.68596 15.5814C13.9886 15.5814 17.4767 12.0934 17.4767 7.7907C17.4767 3.48801 13.9886 0 9.68596 0C5.38328 0 1.89526 3.48801 1.89526 7.7907C1.89526 12.0934 5.38328 15.5814 9.68596 15.5814Z" fill="#448A4C"/>
<path d="M9.38136 11.0279C8.56508 11.0279 8.01391 10.7279 7.65112 10.3093L8.13949 9.66048C8.44647 9.96048 8.81624 10.1977 9.28368 10.1977C9.81391 10.1977 10.1697 9.93257 10.1697 9.47211C10.1697 8.9628 9.86973 8.64885 8.74647 8.64885V7.90932C9.69531 7.90932 10.0023 7.58839 10.0023 7.12792C10.0023 6.72327 9.75112 6.47908 9.31159 6.47908C8.94182 6.47908 8.64182 6.6535 8.33484 6.93955L7.81159 6.30467C8.2581 5.92094 8.75345 5.67676 9.35345 5.67676C10.3511 5.67676 11.0279 6.16513 11.0279 7.05118C11.0279 7.60234 10.7209 8.01397 10.1697 8.22327V8.25815C10.7558 8.42559 11.2023 8.85118 11.2023 9.5349C11.2023 10.4837 10.3721 11.0279 9.38136 11.0279Z" fill="white"/>
<mask id="mask0_66_406" style="mask-type:luminance" maskUnits="userSpaceOnUse" x="19" y="16" width="13" height="16">
<path d="M31.6398 16.5117H19.1277V31.8606H31.6398V16.5117Z" fill="white"/>
</mask>
<g mask="url(#mask0_66_406)">
<path d="M20.0395 16.5117C19.5329 16.5117 19.1277 16.917 19.1277 17.4235V30.9487C19.1277 31.4552 19.5329 31.8606 20.0395 31.8606H28.1951V30.0622C28.1951 29.2771 28.8284 28.6185 29.6388 28.6185H31.6398V17.4235C31.6398 16.917 31.2344 16.5117 30.7279 16.5117H20.0395ZM29.2588 24.8954H21.5085V24.2622H29.2588V24.8954ZM29.2588 22.6918H21.5085V22.0586H29.2588V22.6918ZM29.2588 20.4882H21.5085V19.855H29.2588V20.4882Z" fill="#002E5A"/>
<path d="M28.7271 30.062V31.5057L31.2345 29.1504H29.6389C29.1324 29.1504 28.7271 29.5555 28.7271 30.062Z" fill="#002E5A"/>
</g>
<path d="M18.3553 38.2362H19.7451V38.5711H18.3553V38.2362ZM18.0832 39.6092L18.5269 39.7139C18.3051 40.1283 17.8781 40.4255 17.4135 40.6097C17.3549 40.5134 17.2083 40.3334 17.1204 40.2539C17.539 40.1283 17.92 39.9064 18.0832 39.6092ZM18.0497 39.0316V39.2953H18.5855V39.0316H18.0497ZM17.6395 38.7092H19.0167V39.6134H17.6395V38.7092ZM19.6028 39.0316V39.2953H20.1511V39.0316H19.6028ZM19.1925 38.7092H20.5865V39.6134H19.1925V38.7092ZM17.9869 40.0864L18.28 39.7934C18.5186 39.9064 18.8158 40.0781 18.9874 40.1911L18.6944 40.5218C18.5269 40.3962 18.2214 40.2036 17.9869 40.0864ZM19.7158 39.626L20.1595 39.7013C19.9962 40.1367 19.6404 40.4381 19.2009 40.6181C19.1423 40.5302 18.9916 40.3627 18.8995 40.2916C19.293 40.1618 19.5986 39.9441 19.7158 39.626ZM19.586 40.1534L19.8832 39.8311C20.2516 39.9357 20.7121 40.1074 20.9967 40.2288L20.6953 40.5804C20.4316 40.4464 19.9544 40.2623 19.586 40.1534ZM17.7902 36.926H19.0921V37.2985H17.7902V36.926ZM19.5065 36.9302H21.0344V37.3027H19.5065V36.9302ZM17.7442 36.6455L18.2088 36.7669C18.0455 37.1813 17.7735 37.5957 17.5223 37.8595C17.4302 37.7841 17.2293 37.6543 17.1121 37.5916C17.3758 37.3613 17.6102 37.0013 17.7442 36.6455ZM19.5274 36.6497L20.0004 36.7669C19.879 37.0809 19.6572 37.3948 19.4479 37.5916C19.3558 37.512 19.1549 37.3781 19.0418 37.3195C19.2469 37.152 19.4269 36.9009 19.5274 36.6497ZM18.0204 37.4157L18.4014 37.219C18.4893 37.3404 18.5855 37.5078 18.6232 37.6167L18.2214 37.8343C18.1879 37.7213 18.1 37.5455 18.0204 37.4157ZM19.8958 37.4283L20.2851 37.2316C20.4107 37.3697 20.5614 37.5623 20.6283 37.692L20.2181 37.9097C20.1595 37.7757 20.0214 37.5748 19.8958 37.4283ZM19.3307 37.7088C19.6949 37.9516 20.4149 38.1483 21.0595 38.2278C20.9549 38.3241 20.8251 38.5125 20.7581 38.6297C20.1093 38.5125 19.3976 38.232 18.9707 37.8762L19.3307 37.7088ZM19.046 37.4367L19.4437 37.646C18.9497 38.1148 18.1795 38.4539 17.4511 38.6548C17.3925 38.5376 17.2753 38.3702 17.1707 38.2613C17.8572 38.1106 18.6358 37.8218 19.046 37.4367ZM21.5367 37.9557H22.8972V38.3367H21.5367V37.9557ZM21.5367 38.525H22.8888V38.9018H21.5367V38.525ZM21.3567 37.3739H23.0102V37.7716H21.3567V37.3739ZM21.7711 39.1027H22.8762V40.3753H21.7711V39.9734H22.4451V39.5046H21.7711V39.1027ZM21.5409 39.1027H21.9679V40.5553H21.5409V39.1027ZM21.8088 36.8464L22.1981 36.6581C22.3153 36.8339 22.4409 37.0641 22.5079 37.219L22.1018 37.4409C22.0474 37.2818 21.9135 37.0264 21.8088 36.8464ZM23.0939 36.9971H25.2539V37.4869H23.0939V36.9971ZM24.199 37.1562H24.7097V39.9567C24.7097 40.2455 24.6469 40.392 24.4544 40.4716C24.2618 40.5553 23.9772 40.5636 23.5669 40.5636C23.5418 40.4213 23.4497 40.1785 23.3702 40.0446C23.6549 40.0655 23.9855 40.0613 24.0776 40.0571C24.1655 40.0529 24.199 40.0278 24.199 39.9483V37.1562ZM25.5972 39.1529H29.3521V39.5883H25.5972V39.1529ZM25.6139 36.9762H27.3679V37.3529H25.6139V36.9762ZM27.4683 36.9134H29.0423V37.3571H27.4683V36.9134ZM25.7102 37.5832H27.2716V37.9516H25.7102V37.5832ZM27.1544 38.8264H27.6818C27.5814 39.806 27.3386 40.3711 25.7311 40.6181C25.6893 40.4925 25.5804 40.2999 25.4883 40.1953C26.9367 40.0111 27.079 39.605 27.1544 38.8264ZM28.8372 36.9134H29.3102C29.3102 36.9134 29.3102 37.0432 29.3102 37.1018C29.2725 38.1064 29.239 38.5125 29.1302 38.6464C29.0465 38.7553 28.9586 38.7929 28.8372 38.8097C28.7325 38.8306 28.5567 38.8306 28.3725 38.8264C28.3642 38.6883 28.3139 38.4999 28.2428 38.3785C28.3893 38.3911 28.5232 38.3953 28.5902 38.3953C28.6446 38.3953 28.6823 38.3827 28.7158 38.3409C28.7786 38.2613 28.8121 37.9222 28.8372 36.9929V36.9134ZM27.9455 37.0641H28.4144C28.3683 37.9222 28.2344 38.5669 27.4349 38.9353C27.3846 38.8264 27.259 38.6632 27.1628 38.5836C27.8367 38.2823 27.9121 37.7674 27.9455 37.0641ZM26.2753 36.679H26.74V38.8934H26.2753V36.679ZM25.593 38.2195C26.0493 38.1943 26.7316 38.1441 27.393 38.0981V38.4664C26.7693 38.5292 26.1121 38.5878 25.6349 38.6297L25.593 38.2195ZM27.4851 39.8981L27.7739 39.559C28.2762 39.7348 29.0507 40.0236 29.4483 40.2078L29.1386 40.6013C28.766 40.4171 28.0125 40.1032 27.4851 39.8981ZM31.7674 37.4283H33.2074V37.9013H31.7674V37.4283ZM33.0065 37.4283H33.5172C33.5172 37.4283 33.513 37.6041 33.513 37.6669C33.4669 39.4753 33.4167 40.1241 33.2576 40.3376C33.1362 40.5009 33.019 40.5469 32.8474 40.5762C32.6883 40.6013 32.4288 40.5971 32.186 40.5888C32.1776 40.4464 32.1107 40.2288 32.0186 40.0864C32.2781 40.1074 32.5083 40.1074 32.6214 40.1074C32.7009 40.1074 32.7511 40.0948 32.793 40.0404C32.9228 39.8981 32.9688 39.2074 33.0065 37.5288V37.4283ZM31.8846 36.679L32.3786 36.7795C32.2321 37.4199 31.9767 38.0604 31.6879 38.4664C31.5916 38.3869 31.3781 38.2446 31.2567 38.1776C31.5455 37.826 31.7674 37.2483 31.8846 36.679ZM31.6962 38.6171L32.0395 38.3576C32.3158 38.6171 32.6465 38.9813 32.7846 39.2367L32.4162 39.5297C32.2907 39.2702 31.9767 38.8892 31.6962 38.6171ZM30.8925 38.3576L31.2818 38.2571C31.3949 38.546 31.5162 38.9227 31.5581 39.1529L31.1395 39.2785C31.106 39.0399 30.9972 38.6548 30.8925 38.3576ZM30.4823 39.5088L30.8716 39.4041C30.9386 39.7097 30.9972 40.0864 31.0181 40.346L30.6037 40.459C30.5911 40.1995 30.5367 39.806 30.4823 39.5088ZM29.959 39.4418L30.3944 39.5297C30.3358 39.8897 30.2228 40.2916 30.1223 40.5469C30.0218 40.4925 29.8125 40.4297 29.6995 40.3962C29.8125 40.1576 29.9088 39.7767 29.959 39.4418ZM29.8544 38.3409C29.8293 38.2488 29.7581 38.0227 29.6995 37.9013C29.7874 37.8804 29.8628 37.805 29.959 37.6795C30.0595 37.5623 30.3567 37.106 30.5367 36.6622L30.993 36.859C30.7586 37.3069 30.4362 37.7757 30.1349 38.0981V38.1106C30.1349 38.1106 29.8544 38.2529 29.8544 38.3409ZM29.8544 38.3409L29.8418 37.9976L30.0469 37.8636L30.8088 37.8092C30.7795 37.9306 30.7628 38.1064 30.7586 38.2027C30.0804 38.2697 29.9381 38.3032 29.8544 38.3409ZM29.8711 39.312C29.846 39.2199 29.7665 38.9855 29.7121 38.8557C29.8251 38.8306 29.9255 38.7427 30.0762 38.592C30.2353 38.4413 30.7167 37.8636 31.0307 37.286L31.4451 37.5623C31.0935 38.1148 30.6246 38.6674 30.1767 39.0692V39.0818C30.1767 39.0818 29.8711 39.2241 29.8711 39.312ZM29.8711 39.312L29.8418 38.9436L30.0595 38.7971L31.2693 38.6297C31.2525 38.7553 31.24 38.9395 31.2442 39.0399C30.1558 39.2116 29.98 39.2576 29.8711 39.312ZM30.993 39.4292L31.353 39.2995C31.4576 39.5464 31.5707 39.8646 31.6209 40.0781L31.24 40.2204C31.1939 40.0111 31.0851 39.6804 30.993 39.4292Z" fill="#002E5A"/>
</g>
<defs>
<clipPath id="clip0_66_406">
<rect width="50" height="54.4186" fill="white" transform="translate(0.5)"/>
</clipPath>
</defs>
</svg>
