<svg width="50" height="55" viewBox="0 0 50 55" fill="none" xmlns="http://www.w3.org/2000/svg">
<g clip-path="url(#clip0_66_384)">
<path d="M25 54.3161C38.6145 54.3161 49.6512 43.2291 49.6512 29.5526C49.6512 15.8761 38.6145 4.78906 25 4.78906C11.3856 4.78906 0.348877 15.8761 0.348877 29.5526C0.348877 43.2291 11.3856 54.3161 25 54.3161Z" stroke="#002E5A" stroke-dasharray="5 5"/>
<path d="M9.18596 15.6524C13.4886 15.6524 16.9767 12.1485 16.9767 7.82621C16.9767 3.50391 13.4886 0 9.18596 0C4.88328 0 1.39526 3.50391 1.39526 7.82621C1.39526 12.1485 4.88328 15.6524 9.18596 15.6524Z" fill="#448A4C"/>
<path d="M8.90229 11.0784C8.08601 11.0784 7.54182 10.756 7.15112 10.3705L7.63252 9.71873C7.91856 10.0061 8.28833 10.2444 8.76275 10.2444C9.30694 10.2444 9.6767 9.90095 9.6767 9.2842C9.6767 8.68147 9.32787 8.34506 8.81159 8.34506C8.50461 8.34506 8.33717 8.42215 8.03717 8.61839L7.56275 8.31001L7.70926 5.79395H10.4721V6.656H8.59531L8.49763 7.75634C8.69996 7.66523 8.88136 7.61617 9.11856 7.61617C9.98368 7.61617 10.7093 8.12779 10.7093 9.26318C10.7093 10.4126 9.85112 11.0784 8.90229 11.0784Z" fill="white"/>
<mask id="mask0_66_384" style="mask-type:luminance" maskUnits="userSpaceOnUse" x="17" y="17" width="16" height="15">
<path d="M32.7907 17.9883H17.4419V31.4906H32.7907V17.9883Z" fill="white"/>
</mask>
<g mask="url(#mask0_66_384)">
<path d="M30.1242 31.4911C30.406 31.4911 30.6228 31.2734 30.6228 30.9902V25.6546H31.9235C32.4005 25.6546 32.7907 25.2626 32.7907 24.7834C32.7907 24.5003 32.6607 24.2608 32.4656 24.1083L30.7746 22.6274V20.21C30.7746 19.9269 30.536 19.6874 30.2542 19.6874H29.1919C28.9102 19.6874 28.6716 19.9269 28.6716 20.21V20.8198L25.68 18.2065C25.3546 17.9234 24.8779 17.9234 24.5525 18.2065L17.7454 24.1517C17.4635 24.3914 17.3768 24.7617 17.5069 25.11C17.637 25.4586 17.9622 25.6763 18.309 25.6763H19.6098V31.0119C19.6098 31.2951 19.8265 31.5128 20.1084 31.5128H23.0351V27.6147C23.0351 27.0701 23.4686 26.6127 24.0323 26.6127H26.2002C26.7423 26.6127 27.1974 27.0484 27.1974 27.6147V31.4911H30.1242Z" fill="#002E5A"/>
</g>
<path d="M22.6926 36.3057L23.1614 36.4024C23.0609 36.6505 22.9605 36.9238 22.8767 37.1004L22.5544 37.0037C22.6088 36.8019 22.6716 36.5117 22.6926 36.3057ZM22.1986 36.8061H22.6214V38.3578C22.6214 38.9549 22.5712 39.7833 22.2572 40.2963C22.1902 40.2164 22.006 40.0735 21.9098 40.0272C22.1777 39.5646 22.1986 38.8918 22.1986 38.3578V36.8061ZM22.4246 36.8061H23.2619V37.1972H22.4246V36.8061ZM23.0442 36.8061H23.4795V39.7539C23.4795 39.9683 23.4419 40.0861 23.3163 40.1576C23.1907 40.2291 23.0149 40.2375 22.7553 40.2375C22.747 40.1197 22.7009 39.9263 22.6507 39.8127C22.7888 39.8212 22.9353 39.8169 22.9814 39.8169C23.0274 39.8127 23.0442 39.8001 23.0442 39.7539V36.8061ZM22.6088 37.4368L22.8558 37.3107C22.9353 37.4831 23.0233 37.706 23.0651 37.8363L22.8098 37.9919C22.7721 37.8489 22.6842 37.6135 22.6088 37.4368ZM23.6805 36.4907H24.0991V37.0794C24.0991 37.4116 24.0405 37.8153 23.7349 38.0676C23.6805 37.9835 23.513 37.8111 23.4293 37.7564C23.6595 37.5588 23.6805 37.3065 23.6805 37.071V36.4907ZM23.8437 36.4907H24.4005V36.8734H23.8437V36.4907ZM23.5716 38.076H24.5595V38.5049H23.5716V38.076ZM24.4591 38.076H24.5428L24.6181 38.0592L24.8944 38.1517C24.7353 39.1778 24.3209 39.8926 23.7056 40.2879C23.6428 40.1786 23.5172 40.0104 23.4209 39.9221C23.9526 39.6277 24.3377 38.9465 24.4591 38.1517V38.076ZM23.9651 38.5176C24.1367 39.1357 24.4926 39.6572 25.0367 39.8968C24.9363 39.9852 24.7981 40.1576 24.7312 40.2795C24.1535 39.9641 23.8019 39.3586 23.6051 38.6017L23.9651 38.5176ZM21.0098 38.6143C21.2735 38.5428 21.6502 38.4124 22.0186 38.2863L22.1065 38.753C21.7758 38.8792 21.4242 39.0096 21.1186 39.1147L21.0098 38.6143ZM21.0767 37.1383H22.073V37.6345H21.0767V37.1383ZM21.42 36.3351H21.8679V39.7497C21.8679 39.9725 21.8344 40.0945 21.7088 40.166C21.5916 40.2417 21.42 40.2627 21.1688 40.2585C21.1563 40.1407 21.106 39.9431 21.0474 39.8127C21.1814 39.8212 21.3112 39.8212 21.353 39.8169C21.4033 39.8169 21.42 39.8043 21.42 39.7539V36.3351ZM22.6005 38.7657L22.8474 38.6395C22.927 38.8203 23.0191 39.06 23.0567 39.1988L22.7972 39.3544C22.7595 39.1988 22.6758 38.9507 22.6005 38.7657ZM24.2958 36.4907H24.7102V37.42C24.7102 37.5336 24.7102 37.563 24.7395 37.563C24.7605 37.563 24.794 37.563 24.8149 37.563C24.8567 37.563 24.9195 37.5546 24.9614 37.5378C24.9698 37.6429 24.9823 37.8195 24.9991 37.9204C24.9405 37.9415 24.8819 37.9457 24.8149 37.9457C24.7856 37.9457 24.7688 37.9457 24.7312 37.9457C24.3628 37.9457 24.2958 37.8027 24.2958 37.4158V36.4907ZM22.0521 38.1265C22.4288 38.1055 22.994 38.0592 23.5549 38.0129L23.5633 38.4082C23.04 38.4755 22.5042 38.5344 22.0898 38.5806L22.0521 38.1265ZM26.9372 37.2224V37.4579H28.5028V37.2224H26.9372ZM26.506 36.9364H28.9591V37.7438H26.506V36.9364ZM26.3763 36.4402H29.0553V36.785H26.3763V36.4402ZM26.3888 37.8868H29.1014V38.2358H26.3888V37.8868ZM27.2135 36.579H27.5735V37.6303H27.2135V36.579ZM27.8498 36.579H28.214V37.6345H27.8498V36.579ZM27.2721 37.5672L27.7033 37.6555C27.473 38.2779 27.0209 38.7278 26.4809 39.0054C26.4181 38.9213 26.2549 38.7615 26.1628 38.6858C26.686 38.4671 27.0963 38.0844 27.2721 37.5672ZM26.8242 38.5596H27.2679V39.1609C27.2679 39.2829 27.314 39.2997 27.5442 39.2997C27.653 39.2997 28.1553 39.2997 28.2977 39.2997C28.4651 39.2997 28.5028 39.2577 28.5237 39.0138C28.6158 39.0684 28.7833 39.1231 28.8963 39.1441C28.8502 39.5352 28.7246 39.6319 28.3395 39.6319C28.2223 39.6319 27.6195 39.6319 27.5023 39.6319C26.9833 39.6319 26.8242 39.5394 26.8242 39.1694V38.5596ZM27.854 38.1896L28.1219 37.9373C28.4735 38.1559 28.9507 38.4839 29.1851 38.7026L28.8963 38.9969C28.6744 38.7741 28.2098 38.425 27.854 38.1896ZM28.0172 38.3914H28.4233V38.8498C28.4233 39.018 28.3898 39.0979 28.2642 39.1483C28.1386 39.1904 27.9712 39.1946 27.7284 39.1904C27.7033 39.0979 27.653 38.9843 27.607 38.9002C27.7535 38.9086 27.9126 38.9086 27.9586 38.9044C28.0046 38.9044 28.0172 38.8918 28.0172 38.8498V38.3914ZM26.8242 38.3914H28.2014V38.732H26.8242V38.3914ZM25.3298 36.5664L25.7023 36.3351C25.9033 36.5369 26.1377 36.8019 26.2633 36.9701L25.8823 37.2476C25.7651 37.071 25.5265 36.7766 25.3298 36.5664ZM25.2921 37.3107H26.0623V37.7144H25.2921V37.3107ZM26.1335 39.1399C26.3553 39.7076 26.8409 39.7749 27.5944 39.7791C28.0381 39.7791 28.7205 39.7497 29.1935 39.7034C29.1223 39.8127 29.0553 40.0356 29.0302 40.1744C28.5991 40.1996 28.0674 40.2122 27.586 40.2122C26.6191 40.2122 26.1042 40.0777 25.7986 39.2745L26.1335 39.1399ZM25.9493 38.3325H26.0707L26.146 38.3241L26.3846 38.4082C26.2633 39.3249 25.9577 39.9515 25.514 40.2837C25.447 40.1828 25.2837 40.0146 25.1916 39.9473C25.5977 39.6656 25.8572 39.1357 25.9493 38.4082V38.3325ZM25.3716 38.7909V38.4293L25.5474 38.3325H26.0791V38.7236H25.6186C25.5307 38.7236 25.4051 38.753 25.3716 38.7909ZM25.3716 38.7909C25.3465 38.6858 25.2586 38.4713 25.2126 38.383C25.2795 38.3662 25.3465 38.3325 25.4177 38.2484C25.5265 38.1349 25.8614 37.584 25.9828 37.3569V37.3443L26.1084 37.2939L26.414 37.4158C26.2381 37.706 25.92 38.2442 25.7065 38.5134C25.7065 38.5134 25.3716 38.6774 25.3716 38.7909Z" fill="#002E5A"/>
</g>
<defs>
<clipPath id="clip0_66_384">
<rect width="50" height="54.6667" fill="white"/>
</clipPath>
</defs>
</svg>
