<svg width="51" height="55" viewBox="0 0 51 55" fill="none" xmlns="http://www.w3.org/2000/svg">
<g clip-path="url(#clip0_66_428)">
<path d="M25.5 54.0699C39.1145 54.0699 50.1512 43.0332 50.1512 29.4187C50.1512 15.8043 39.1145 4.76758 25.5 4.76758C11.8856 4.76758 0.848877 15.8043 0.848877 29.4187C0.848877 43.0332 11.8856 54.0699 25.5 54.0699Z" stroke="#002E5A" stroke-dasharray="5 5"/>
<path d="M9.68596 15.5814C13.9886 15.5814 17.4767 12.0934 17.4767 7.7907C17.4767 3.48801 13.9886 0 9.68596 0C5.38328 0 1.89526 3.48801 1.89526 7.7907C1.89526 12.0934 5.38328 15.5814 9.68596 15.5814Z" fill="#448A4C"/>
<path d="M9.82097 10.9304V7.75595C9.82097 7.45595 9.84887 6.98851 9.86283 6.68153H9.83492C9.70236 6.9606 9.56283 7.24665 9.41631 7.52572L8.62097 8.80944H11.3907V9.59781H7.62329V8.89316L9.5419 5.76758H10.7768V10.9304H9.82097Z" fill="white"/>
<mask id="mask0_66_428" style="mask-type:luminance" maskUnits="userSpaceOnUse" x="17" y="16" width="16" height="16">
<path d="M32.3137 16.5117H17.5237V31.8606H32.3137V16.5117Z" fill="white"/>
</mask>
<g mask="url(#mask0_66_428)">
<path d="M18.9208 18.2881C18.1424 18.2881 17.5237 18.9068 17.5237 19.6852V30.4833C17.5237 31.2616 18.1424 31.8805 18.9208 31.8805H30.9166C31.6949 31.8805 32.3135 31.2616 32.3135 30.4833V19.6852C32.3135 18.9068 31.6949 18.2881 30.9166 18.2881H30.4375V19.1663C30.4375 19.7651 29.9584 20.2441 29.3596 20.2441C28.7608 20.2441 28.2819 19.7651 28.2819 19.1663V18.2881H21.5555V19.1663C21.5555 19.7651 21.0765 20.2441 20.4777 20.2441C19.8789 20.2441 19.3999 19.7651 19.3999 19.1663V18.2881H18.9208ZM19.7991 22.1802H30.0382C30.3377 22.1802 30.597 22.3997 30.597 22.6792V29.6649C30.597 29.9444 30.3377 30.164 30.0382 30.164H19.7991C19.4997 30.164 19.2402 29.9444 19.2402 29.6649V22.6991C19.2402 22.4197 19.4997 22.1802 19.7991 22.1802Z" fill="#002E5A"/>
<path d="M19.9587 17.0307V18.2881V19.1663C19.9587 19.4458 20.1783 19.6853 20.4777 19.6853C20.7571 19.6853 20.9966 19.4657 20.9966 19.1663V18.2881V17.0307C20.9966 16.7512 20.7571 16.5117 20.4777 16.5117C20.1983 16.5117 19.9587 16.7313 19.9587 17.0307Z" fill="#002E5A"/>
<path d="M28.8608 17.0307V18.2881V19.1663C28.8608 19.4458 29.1004 19.6853 29.3797 19.6853C29.6592 19.6853 29.8987 19.4657 29.8987 19.1663V18.2881V17.0307C29.8987 16.7512 29.679 16.5117 29.3797 16.5117C29.0804 16.5117 28.8608 16.7313 28.8608 17.0307Z" fill="#002E5A"/>
<path d="M22.9327 23.0586H20.2183V25.8329H22.9327V23.0586Z" fill="#002E5A"/>
<path d="M26.346 23.0586H23.6313V25.8329H26.346V23.0586Z" fill="#002E5A"/>
<path d="M22.9327 26.4717H20.2183V29.2461H22.9327V26.4717Z" fill="#002E5A"/>
<path d="M26.346 26.4717H23.6313V29.2461H26.346V26.4717Z" fill="#002E5A"/>
<path d="M29.8787 23.0586H27.1641V25.8329H29.8787V23.0586Z" fill="#002E5A"/>
<path d="M29.8787 26.4717H27.1641V29.2461H29.8787V26.4717Z" fill="#002E5A"/>
</g>
<path d="M16.7516 36.8547H18.0869V37.29H16.7516V36.8547ZM16.6553 38.2026H18.246V38.6463H16.6553V38.2026ZM17.279 38.4454H17.7604V40.0737C17.7604 40.304 17.7227 40.4379 17.5636 40.5133C17.4129 40.5928 17.2036 40.6012 16.919 40.6012C16.9022 40.4589 16.8353 40.2537 16.7683 40.1198C16.9483 40.124 17.145 40.124 17.2036 40.124C17.2622 40.124 17.279 40.1114 17.279 40.0612V38.4454ZM17.9362 36.8547H18.0409L18.1329 36.8296L18.4385 37.0472C18.2334 37.3779 17.9362 37.7589 17.6683 37.9975C17.6013 37.9096 17.4716 37.7714 17.3878 37.7002C17.5971 37.5035 17.8316 37.1686 17.9362 36.9468V36.8547ZM18.0995 38.2026H18.1622L18.2292 38.1858L18.539 38.257C18.4511 38.6086 18.3339 39.0021 18.2418 39.2533L17.8692 39.1696C17.9446 38.9435 18.0409 38.5668 18.0995 38.2612V38.2026ZM16.8269 37.763L17.0781 37.4323C17.4213 37.5914 17.865 37.8468 18.0785 38.0477L17.8064 38.4202C17.6055 38.2109 17.1743 37.9347 16.8269 37.763ZM18.4176 36.8421H20.5609V37.2649H18.4176V36.8421ZM19.0204 38.5207V38.7886H19.9539V38.5207H19.0204ZM19.0204 39.1319V39.3998H19.9539V39.1319H19.0204ZM19.0204 37.9137V38.1775H19.9539V37.9137H19.0204ZM18.5599 37.5454H20.4353V39.7682H18.5599V37.5454ZM19.2339 37.0723L19.8074 37.1351C19.7278 37.3989 19.6399 37.6626 19.5688 37.8426L19.1334 37.763C19.1753 37.5621 19.2213 37.2775 19.2339 37.0723ZM18.9702 39.7723L19.3804 40.0402C19.1502 40.2621 18.7525 40.4965 18.426 40.6221C18.3464 40.53 18.1999 40.3793 18.0911 40.2956C18.4176 40.1784 18.786 39.9523 18.9702 39.7723ZM19.5771 40.0528L19.9497 39.8016C20.1841 39.9523 20.5022 40.1826 20.6655 40.3416L20.272 40.6221C20.1255 40.4672 19.8157 40.2202 19.5771 40.0528ZM22.9302 37.4282H24.3702V37.9012H22.9302V37.4282ZM24.1692 37.4282H24.6799C24.6799 37.4282 24.6757 37.604 24.6757 37.6668C24.6297 39.4751 24.5795 40.124 24.4204 40.3375C24.299 40.5007 24.1818 40.5468 24.0102 40.5761C23.8511 40.6012 23.5916 40.597 23.3488 40.5886C23.3404 40.4463 23.2734 40.2286 23.1813 40.0863C23.4409 40.1072 23.6711 40.1072 23.7841 40.1072C23.8636 40.1072 23.9139 40.0947 23.9557 40.0402C24.0855 39.8979 24.1316 39.2072 24.1692 37.5286V37.4282ZM23.0474 36.6789L23.5413 36.7793C23.3948 37.4198 23.1395 38.0603 22.8506 38.4663C22.7543 38.3868 22.5409 38.2444 22.4195 38.1775C22.7083 37.8258 22.9302 37.2482 23.0474 36.6789ZM22.859 38.617L23.2023 38.3575C23.4785 38.617 23.8092 38.9812 23.9474 39.2365L23.579 39.5296C23.4534 39.27 23.1395 38.8891 22.859 38.617ZM22.0553 38.3575L22.4446 38.257C22.5576 38.5458 22.679 38.9226 22.7209 39.1528L22.3022 39.2784C22.2688 39.0398 22.1599 38.6547 22.0553 38.3575ZM21.645 39.5086L22.0343 39.404C22.1013 39.7096 22.1599 40.0863 22.1809 40.3458L21.7664 40.4589C21.7539 40.1993 21.6995 39.8058 21.645 39.5086ZM21.1218 39.4416L21.5571 39.5296C21.4985 39.8896 21.3855 40.2914 21.285 40.5468C21.1846 40.4923 20.9753 40.4296 20.8622 40.3961C20.9753 40.1575 21.0716 39.7765 21.1218 39.4416ZM21.0171 38.3407C20.992 38.2486 20.9209 38.0226 20.8622 37.9012C20.9502 37.8802 21.0255 37.8049 21.1218 37.6793C21.2223 37.5621 21.5195 37.1058 21.6995 36.6621L22.1557 36.8589C21.9213 37.3068 21.599 37.7756 21.2976 38.0979V38.1105C21.2976 38.1105 21.0171 38.2528 21.0171 38.3407ZM21.0171 38.3407L21.0046 37.9975L21.2097 37.8635L21.9716 37.8091C21.9423 37.9305 21.9255 38.1063 21.9213 38.2026C21.2432 38.2696 21.1009 38.303 21.0171 38.3407ZM21.0339 39.3119C21.0088 39.2198 20.9292 38.9854 20.8748 38.8556C20.9878 38.8305 21.0883 38.7426 21.239 38.5919C21.3981 38.4412 21.8795 37.8635 22.1934 37.2858L22.6078 37.5621C22.2562 38.1147 21.7874 38.6672 21.3395 39.0691V39.0816C21.3395 39.0816 21.0339 39.224 21.0339 39.3119ZM21.0339 39.3119L21.0046 38.9435L21.2223 38.797L22.432 38.6296C22.4153 38.7551 22.4027 38.9393 22.4069 39.0398C21.3185 39.2114 21.1427 39.2575 21.0339 39.3119ZM22.1557 39.4291L22.5157 39.2993C22.6204 39.5463 22.7334 39.8644 22.7836 40.0779L22.4027 40.2202C22.3567 40.0109 22.2478 39.6803 22.1557 39.4291ZM25.559 36.93H28.4809V40.5551H27.9409V37.4365H26.0781V40.5593H25.559V36.93ZM25.9148 38.3365H28.1669V38.8347H25.9148V38.3365ZM25.9106 39.7807H28.1669V40.2872H25.9106V39.7807ZM31.6748 36.8672H32.759V37.3193H31.6748V36.8672ZM31.6748 37.8133H32.759V38.2528H31.6748V37.8133ZM31.6748 38.7677H32.7632V39.2156H31.6748V38.7677ZM32.5413 36.8672H33.0269V40.057C33.0269 40.2998 32.9809 40.4379 32.8302 40.5133C32.6836 40.5928 32.4702 40.6054 32.1562 40.6054C32.1436 40.4714 32.0767 40.2537 32.0139 40.1282C32.1939 40.1365 32.399 40.1365 32.4576 40.1323C32.5204 40.1323 32.5413 40.1114 32.5413 40.0486V36.8672ZM31.4697 36.8672H31.9385V38.4035C31.9385 39.0649 31.8841 40.0235 31.5283 40.6179C31.4446 40.53 31.2395 40.3835 31.1306 40.3333C31.4446 39.7975 31.4697 39.0021 31.4697 38.4035V36.8672ZM29.2762 37.1728H31.3274V37.6082H29.2762V37.1728ZM29.8246 37.8551H30.8209V38.2403H29.8246V37.8551ZM29.8246 38.5082H30.825V38.8891H29.8246V38.5082ZM29.226 39.1696H31.2981V39.6091H29.226V39.1696ZM29.6069 36.7249H30.059V39.3286H29.6069V36.7249ZM30.5823 36.7249H31.0427V39.3286H30.5823V36.7249ZM29.7492 39.6384L30.2222 39.7765C30.0674 40.0863 29.8204 40.4128 29.5985 40.6179C29.5022 40.5342 29.3097 40.3919 29.1925 40.3249C29.4185 40.1533 29.632 39.8937 29.7492 39.6384ZM30.3688 39.8268L30.7497 39.6175C30.9171 39.8016 31.1306 40.057 31.2269 40.2286L30.8209 40.4672C30.7371 40.2998 30.5362 40.0235 30.3688 39.8268Z" fill="#002E5A"/>
</g>
<defs>
<clipPath id="clip0_66_428">
<rect width="50" height="54.4186" fill="white" transform="translate(0.5)"/>
</clipPath>
</defs>
</svg>
